<svg width="800" height="800" viewBox="-1 0 25 25" xmlns="http://www.w3.org/2000/svg" fill="#f5f7f9" >
  <path d="M18.44,15.6a1,1,0,0,0-1.34-.19,9,9,0,0,1-10.2,0,1,1,0,0,0-1.34.19A7,7,0,0,0,4,20a1,1,0,0,0,1,1H19a1,1,0,0,0,1-1,7,7,0,0,0-1.56-4.4Z"/>
  <path fill="none" stroke="#f5f7f9" stroke-linecap="round" stroke-linejoin="round" stroke-width="2" d="M20,20a1,1,0,0,1-1,1H5a1,1,0,0,1-1-1,7,7,0,0,1,1.56-4.4,1,1,0,0,1,1.34-.19,9,9,0,0,0,10.2,0,1,1,0,0,1,1.34.19A7,7,0,0,1,20,20ZM12,3a5,5,0,1,0,5,5A5,5,0,0,0,12,3Z" />
</svg>
